<?xml version="1.0" encoding="UTF-8" standalone="no"?>
<!-- Created with Inkscape (http://www.inkscape.org/) -->

<svg
   width="24mm"
   height="24mm"
   viewBox="0 0 24 24"
   version="1.1"
   id="svg5"
   xml:space="preserve"
   inkscape:version="1.2 (dc2aedaf03, 2022-05-15)"
   sodipodi:docname="options.svg"
   xmlns:inkscape="http://www.inkscape.org/namespaces/inkscape"
   xmlns:sodipodi="http://sodipodi.sourceforge.net/DTD/sodipodi-0.dtd"
   xmlns="http://www.w3.org/2000/svg"
   xmlns:svg="http://www.w3.org/2000/svg"><sodipodi:namedview
     id="namedview7"
     pagecolor="#ffffff"
     bordercolor="#000000"
     borderopacity="0.25"
     inkscape:showpageshadow="2"
     inkscape:pageopacity="0.0"
     inkscape:pagecheckerboard="0"
     inkscape:deskcolor="#d1d1d1"
     inkscape:document-units="mm"
     showgrid="false"
     inkscape:zoom="2.9825758"
     inkscape:cx="-19.9492"
     inkscape:cy="74.935229"
     inkscape:window-width="1920"
     inkscape:window-height="1018"
     inkscape:window-x="-6"
     inkscape:window-y="-6"
     inkscape:window-maximized="1"
     inkscape:current-layer="layer1" /><defs
     id="defs2" /><g
     inkscape:label="Ebene 1"
     inkscape:groupmode="layer"
     id="layer1"><path
       style="fill:#000000;stroke-width:0.0713335"
       d="M 9.2859459,23.919788 C 9.2861889,23.905808 9.1850731,23.125364 9.0612429,22.185471 8.8021246,20.218706 8.8337019,20.28679 7.9934408,19.883174 7.7058338,19.745025 7.1721323,19.431978 6.8074375,19.187519 5.9595065,18.619139 6.001004,18.616961 4.1082099,19.329113 3.2686305,19.645001 2.5411121,19.902741 2.4915023,19.90187 2.4248683,19.900699 0.12953748,16.049639 1.4698048e-4,15.721924 -0.0110852,15.693475 0.62288576,15.201731 1.408972,14.629156 3.1075992,13.391903 2.9697015,13.63883 2.9895337,11.798905 3.008563,10.033487 3.1907103,10.366784 1.4663481,9.0117324 0.76815158,8.4630714 0.18132381,7.9888928 0.16228622,7.9580071 0.1353352,7.9142828 2.5788353,3.912677 2.7039017,3.7957218 2.7203328,3.7803435 3.4736009,4.0694934 4.3778298,4.4382507 6.3942334,5.2605646 6.1553313,5.2466431 7.1881876,4.6020328 7.4709195,4.4255771 7.9892438,4.1483193 8.3400196,3.9858999 9.1425841,3.6142935 9.1151041,3.6706257 9.3507466,1.9139851 9.4594351,1.1037492 9.5680314,0.33869458 9.5920726,0.21386456 c 0.03786,-0.19657255 5.1959884,-0.30693197 5.1925864,-0.1110999 -2.43e-4,0.0139742 0.100873,0.7944239 0.224703,1.73431644 0.259117,1.9667644 0.22754,1.8986812 1.067802,2.3022965 0.287606,0.1381522 0.82002,0.450332 1.183139,0.6937351 0.842462,0.5647163 0.775633,0.5680588 2.669239,-0.1335074 0.861579,-0.3192099 1.606356,-0.5796811 1.65506,-0.5788257 0.165756,0.00292 2.520777,4.1895993 2.411726,4.2874945 -0.05271,0.047318 -0.675174,0.5056365 -1.383249,1.0184813 -1.651623,1.1962346 -1.507167,0.9344486 -1.528679,2.7702776 -0.02108,1.798176 -0.204357,1.458852 1.519856,2.813788 0.698196,0.54866 1.285026,1.022839 1.304063,1.053725 0.02696,0.04372 -2.416549,4.045329 -2.541615,4.162284 -0.01643,0.01537 -0.7697,-0.273771 -1.67393,-0.642528 -2.016403,-0.822314 -1.777501,-0.808392 -2.810356,-0.163783 -0.282732,0.176456 -0.804705,0.455403 -1.159938,0.619883 -0.809393,0.374771 -0.787707,0.327353 -1.028133,2.248022 -0.103492,0.826778 -0.204945,1.55812 -0.225451,1.625201 -0.03393,0.110993 -5.1848784,0.117118 -5.1829501,0.0062 z m 3.6489521,-7.51352 c 1.735608,-0.323035 3.227041,-1.712242 3.622401,-3.37411 C 17.584686,8.7136351 12.120638,5.7243521 8.8196821,8.7990481 5.5186716,11.873798 8.4246796,17.245725 12.934898,16.406268 Z"
       id="path360"
       sodipodi:nodetypes="ssssssssssscsssssssssssssssssssssssssss" /></g></svg>
