<?xml version="1.0" encoding="UTF-8" standalone="no"?>
<svg
   viewBox="0 0 24 24"
   version="1.1"
   id="svg9"
   sodipodi:docname="pause.svg"
   inkscape:version="1.2 (dc2aedaf03, 2022-05-15)"
   width="24"
   height="24"
   xmlns:inkscape="http://www.inkscape.org/namespaces/inkscape"
   xmlns:sodipodi="http://sodipodi.sourceforge.net/DTD/sodipodi-0.dtd"
   xmlns="http://www.w3.org/2000/svg"
   xmlns:svg="http://www.w3.org/2000/svg">
  <defs
     id="defs13" />
  <sodipodi:namedview
     id="namedview11"
     pagecolor="#ffffff"
     bordercolor="#000000"
     borderopacity="0.25"
     inkscape:showpageshadow="2"
     inkscape:pageopacity="0.0"
     inkscape:pagecheckerboard="0"
     inkscape:deskcolor="#d1d1d1"
     showgrid="false"
     inkscape:zoom="13.078125"
     inkscape:cx="4.7789725"
     inkscape:cy="12.654719"
     inkscape:window-width="1920"
     inkscape:window-height="1018"
     inkscape:window-x="-6"
     inkscape:window-y="-6"
     inkscape:window-maximized="1"
     inkscape:current-layer="svg9" />
  <title
     id="title2" />
  <path
     id="rect6"
     d="m 16.000001,0 h 6.666666 c 0.738667,0 1.333332,0.38228571 1.333332,0.85714286 V 23.142857 C 24.000001,23.617714 23.405334,24 22.666667,24 h -6.666666 c -0.738666,0 -1.333334,-0.382286 -1.333334,-0.857143 V 0.85714286 C 14.666667,0.38228571 15.261335,0 16.000001,0 Z M 1.3333335,0 h 6.666667 c 0.738666,0 1.333334,0.38228571 1.333334,0.85714286 V 23.142857 C 9.3333345,23.617714 8.7386665,24 8.0000005,24 H 1.3333335 C 0.5946667,24 0,23.617714 0,23.142857 V 0.85714286 C 0,0.38228571 0.5946667,0 1.3333335,0 Z"
     style="stroke-width:1.06905" />
</svg>
