<?xml version="1.0" encoding="UTF-8" standalone="no"?>
<svg
   height="32"
   viewBox="0 0 32 32"
   width="32"
   version="1.1"
   id="svg1157"
   inkscape:version="1.2 (dc2aedaf03, 2022-05-15)"
   sodipodi:docname="speaker.svg"
   xmlns:inkscape="http://www.inkscape.org/namespaces/inkscape"
   xmlns:sodipodi="http://sodipodi.sourceforge.net/DTD/sodipodi-0.dtd"
   xmlns="http://www.w3.org/2000/svg"
   xmlns:svg="http://www.w3.org/2000/svg">
  <defs
     id="defs9" />
  <sodipodi:namedview
     id="namedview7"
     pagecolor="#ffffff"
     bordercolor="#000000"
     borderopacity="0.25"
     inkscape:showpageshadow="2"
     inkscape:pageopacity="0.0"
     inkscape:pagecheckerboard="0"
     inkscape:deskcolor="#d1d1d1"
     showgrid="false"
     inkscape:zoom="17.4375"
     inkscape:cx="-0.77419355"
     inkscape:cy="14.709677"
     inkscape:window-width="1920"
     inkscape:window-height="1018"
     inkscape:window-x="-6"
     inkscape:window-y="-6"
     inkscape:window-maximized="1"
     inkscape:current-layer="svg1157" />
  <path
     style="stroke:none;stroke-width:1.33333;stroke-opacity:1"
     d="M 17.093556,2.7351522 C 16.19156,2.3177162 15.559829,3.2255709 14.93504,3.7121682 12.709386,5.6431002 10.483733,7.5740336 8.2580796,9.5049656 5.8201277,9.5194189 3.3794223,9.4758589 0.94321828,9.5270989 0.03906495,9.6777229 -0.04081105,10.651352 0.01279295,11.386232 c 0.01490666,2.777914 -0.02990667,5.558693 0.0226,8.334802 0.154524,0.911899 1.13723735,0.978571 1.87602795,0.928089 2.0750507,0 4.1501028,0 6.2251547,0 2.6262904,2.259752 5.2290694,4.54894 7.8701124,6.790226 0.829383,0.562256 1.96228,-0.28746 1.763855,-1.237687 -0.0076,-7.525256 0.0152,-15.051538 -0.01147,-22.5761511 C 17.707503,3.2407456 17.44806,2.8934202 17.093497,2.7351536 Z"
     id="path393" />
  <path
     d="m 20.830213,9.0569665 a 1.1568125,1.1568125 0 0 0 -0.867922,0.1735827 1.1568125,1.1568125 0 0 0 -0.329808,1.5969818 c 1.721724,2.623158 1.721724,6.004016 0,8.627174 a 1.1568125,1.1568125 0 0 0 0.329806,1.614341 1.1568125,1.1568125 0 0 0 1.596982,-0.347169 c 2.224212,-3.38873 2.224212,-7.772784 0,-11.1615144 A 1.1568125,1.1568125 0 0 0 20.830213,9.0569665 Z"
     id="path391"
     style="stroke-width:1.33333" />
  <path
     d="m 23.190969,5.9845124 a 1.1568125,1.1568125 0 0 0 -0.243018,1.6143402 c 3.312073,4.4933854 3.312073,10.6085064 0,15.1018934 a 1.1568125,1.1568125 0 0 0 0.243021,1.61434 1.1568125,1.1568125 0 0 0 1.61434,-0.243021 c 3.908027,-5.301896 3.908027,-12.542639 0,-17.8445356 a 1.1568125,1.1568125 0 0 0 -1.614343,-0.243017 z"
     id="path389"
     style="stroke-width:1.33333" />
  <path
     d="M 27.009839,2.7558317 A 1.1568125,1.1568125 0 0 0 26.159273,2.9988512 1.1568125,1.1568125 0 0 0 25.985691,4.63055 c 4.940373,6.149673 4.940373,14.888825 0,21.038499 a 1.1568125,1.1568125 0 0 0 0.173582,1.614341 1.1568125,1.1568125 0 0 0 1.631699,-0.173583 c 5.612037,-6.985749 5.612037,-16.951619 0,-23.9373682 A 1.1568125,1.1568125 0 0 0 27.009839,2.7558317 Z"
     id="path1155"
     style="stroke-width:1.33333" />
</svg>
